<svg xmlns="http://www.w3.org/2000/svg" viewBox="0 0 160 160">
  <rect width="160" height="160" rx="24" fill="#0d0d0b"/>
  <path d="M 56 40 L 56 120" fill="none" stroke="#b89a6a" stroke-width="2" stroke-linecap="round"/>
  <path d="M 58 80 Q 72 80 80 65 Q 88 50 100 42" fill="none" stroke="#b89a6a" stroke-width="2" stroke-linecap="round"/>
  <path d="M 58 76 Q 68 76 74 66 Q 80 56 88 50" fill="none" stroke="#b89a6a" stroke-width="1" opacity="0.4" stroke-linecap="round"/>
  <path d="M 58 72 Q 65 72 70 64 Q 75 56 80 52" fill="none" stroke="#b89a6a" stroke-width="0.6" opacity="0.2" stroke-linecap="round"/>
  <path d="M 58 80 Q 72 80 80 95 Q 88 110 100 118" fill="none" stroke="#b89a6a" stroke-width="2" stroke-linecap="round"/>
  <path d="M 58 84 Q 68 84 74 94 Q 80 104 88 110" fill="none" stroke="#b89a6a" stroke-width="1" opacity="0.4" stroke-linecap="round"/>
  <path d="M 58 88 Q 65 88 70 96 Q 75 104 80 108" fill="none" stroke="#b89a6a" stroke-width="0.6" opacity="0.2" stroke-linecap="round"/>
</svg>
